# xmcd
#
# Track frame offsets:
#	182
#	17970
#	34802
#	49905
#	65517
#	77095
#	89570
#	106680
#	120702
#	134997
#	151282
#	167320
#
# Disc length: 2387 seconds
#
# Revision: 0
# Processed by: cddbd v1.5.2PL0 Copyright (c) Steve Scherf et al.
# Submitted via: EasyCDDAExtractor 2010.6.0.0
#
DISCID=9e09510c
DTITLE=M-I-R - DUSTY STREETS
DYEAR=1992
DGENRE=COUNTRY
TTITLE0=HUNDERT JAHRE UND EIN TAG
TTITLE1=M-I-R IS ON THE ROAD
TTITLE2=MONTAGS MORGENS UM VIER
TTITLE3=ICH WOLLT' SCHON IMMER 'N TRUCKER SEIN
TTITLE4=THE LONESOME COWBOYS
TTITLE5=DUSTY STREETS
TTITLE6=THE LONELY TRAMP
TTITLE7=MEIN PLATZ ZUHAUS
TTITLE8=TAUSEND MEILEN GERADEAUS
TTITLE9=DER ALTE COWBOY
TTITLE10=TWENTY YEARS ON THE ROAD
TTITLE11=IT'S COUNTRY-TIME
EXTD=
EXTT0=
EXTT1=
EXTT2=
EXTT3=
EXTT4=
EXTT5=
EXTT6=
EXTT7=
EXTT8=
EXTT9=
EXTT10=
EXTT11=
PLAYORDER=
